 <svg version="1.0" xmlns="http://www.w3.org/2000/svg" width="700.000000pt" height="700.000000pt" viewBox="0 0 700.000000 700.000000" preserveAspectRatio="xMidYMid meet">
<metadata>
Created by potrace 1.12, written by Peter Selinger 2001-2015
</metadata>
<g transform="translate(0.000000,700.000000) scale(0.100000,-0.100000)" fill="#000000" stroke="none">
<path d="M3402 6114 c-51 -36 -54 -53 -50 -367 l3 -292 -237 -5 c-233 -5 -237
-5 -262 -29 -34 -32 -43 -84 -22 -128 27 -57 55 -63 306 -63 l220 0 0 -104 0
-104 -126 -4 -126 -3 -34 -37 c-38 -42 -44 -80 -19 -127 24 -47 69 -61 193
-61 91 0 111 -3 116 -16 3 -9 6 -105 6 -215 l0 -199 -226 0 c-329 0 -324 4
-324 -268 l0 -170 -127 -4 c-197 -5 -203 -13 -203 -267 l0 -171 -440 0 -440 0
0 104 c0 85 3 105 16 110 9 3 115 6 235 6 143 0 228 4 242 11 38 19 57 51 57
97 0 58 -38 98 -101 107 -24 3 -268 5 -541 3 l-498 -3 -32 -33 c-27 -27 -33
-40 -33 -77 0 -35 6 -50 28 -72 l27 -28 188 -5 187 -5 3 -107 3 -106 -131 -4
-130 -3 -32 -33 -33 -32 -3 -185 -3 -185 -375 0 c-316 0 -380 -2 -404 -15 -33
-17 -60 -61 -60 -98 0 -20 151 -440 280 -779 11 -32 33 -67 47 -78 26 -20 31
-20 2555 -20 1777 0 2535 3 2549 11 11 6 120 87 242 181 122 95 319 246 437
337 265 203 341 263 358 284 22 26 26 81 8 115 -30 59 -48 62 -326 62 l-250 0
0 105 0 105 275 0 c215 0 283 3 310 14 74 31 93 123 36 180 l-31 31 -690 3
c-752 3 -728 4 -766 -53 -14 -21 -16 -54 -15 -205 l2 -180 -166 0 -165 0 0
175 c0 264 -1 265 -270 265 l-170 0 0 175 c0 251 -5 258 -196 263 l-122 4 -6
30 c-3 17 -6 99 -6 182 0 229 4 226 -325 226 l-225 0 0 215 0 215 115 0 c133
0 175 13 199 59 21 39 20 76 -1 112 -28 48 -67 59 -202 59 l-121 0 0 105 0
105 230 0 c256 0 287 6 314 59 9 16 16 42 16 56 0 31 -27 81 -49 92 -9 4 -126
10 -261 13 l-245 5 -6 275 c-4 151 -7 290 -8 308 -2 51 -48 92 -103 92 -24 0
-54 -7 -66 -16z"></path>
</g>
</svg>