<!-- Generated by IcoMoon.io -->
<svg version="1.1" xmlns="http://www.w3.org/2000/svg" width="1024" height="1024" viewBox="0 0 1024 1024">
<title></title>
<g id="icomoon-ignore">
</g>
<path fill="#000" d="M67.769 231.319c-3.747 7.496-6.723 14.379-6.723 15.156 0 1.249-7.031 16.099-24.379 51.572-4.693 9.374-8.442 17.973-8.442 18.912s-3.123 7.975-7.031 15.475c-3.909 7.656-7.031 14.53-7.031 15.313 0 0.625-1.71 4.845-3.909 9.227-5.945 11.731-5.319 13.127 11.252 21.56 7.819 4.067 15.937 7.975 17.973 8.601 3.441 1.084 17.66 7.656 53.756 25.167 9.529 4.533 17.973 8.28 18.76 8.28 0.625 0 8.442 3.441 17.034 7.656 8.601 4.067 23.755 11.566 33.909 16.408 10 4.845 18.76 8.748 19.384 8.748 1.411 0 21.416 9.529 51.419 24.379 9.529 4.533 18.134 8.442 19.060 8.442s7.975 3.123 15.475 7.031c7.656 3.909 14.53 7.031 15.313 7.031s9.853 4.219 20.009 9.374c10.316 5.158 19.222 9.067 20.009 8.601 1.71-1.084 10.94-19.384 10.94-21.72 0-0.937 3.909-9.374 8.601-18.76s8.601-17.66 8.601-18.435c0-0.786 1.084-2.967 2.336-4.996l2.498-3.747 12.029 5.945c6.569 3.284 18.912 9.227 27.345 13.278l15.475 7.349-0.937 4.996c-0.458 2.66-4.533 12.029-8.748 20.471-4.372 8.601-7.819 16.099-7.819 16.883 0 1.249-7.496 17.034-25.167 53.45-4.219 8.601-7.656 16.562-7.656 17.66s-1.71 5.158-3.909 9.067c-7.031 12.653-6.245 14.379 12.977 23.593 9.227 4.372 18.435 8.601 20.633 9.227 2.189 0.458 5.782 2.336 8.122 3.909 2.189 1.71 4.533 2.967 5.158 2.967 1.411 0 14.851 6.245 37.505 17.348 8.601 4.219 16.257 7.656 17.186 7.656 0.786 0 9.227 3.747 18.76 8.28 9.374 4.693 25.316 12.357 35.48 17.186 12.653 6.245 20.009 8.905 24.379 8.905h6.097l8.122-16.099c4.372-8.905 7.975-16.883 7.975-17.66 0-0.937 3.909-9.227 8.601-18.597 4.693-9.227 8.601-17.508 8.601-18.286s3.441-8.601 7.656-17.348c4.219-8.748 10.154-21.258 13.278-27.665 8.442-17.66 6.723-16.883 20.633-10.154 6.87 3.284 18.286 8.748 25.628 12.189s13.602 6.569 13.904 6.723c0.311 0.311-0.937 3.593-2.815 7.349-1.71 3.747-3.284 7.349-3.284 8.122s-3.747 9.227-8.442 18.76c-12.029 24.379-13.753 28.597-13.127 32.35 0.311 1.71 1.563 3.747 2.815 4.372s9.067 4.372 17.348 8.28c8.28 4.067 15.631 7.349 16.408 7.349 0.625 0 9.853 4.219 20.308 9.374s19.538 9.374 20.308 9.374c1.084 0 6.245 2.498 47.667 22.507 10 4.845 18.76 8.748 19.538 8.748 1.249 0 7.194 2.815 50.946 23.917 10 4.996 18.912 8.905 19.682 8.905 0.937 0 8.442 3.441 16.723 7.819 8.28 4.219 15.937 7.819 16.883 7.819s9.374 3.747 18.912 8.442c33.447 16.257 44.686 21.258 47.667 21.258 2.035 0 4.533-2.815 7.819-8.905 2.66-4.845 4.845-9.691 4.845-10.626s3.909-9.374 8.601-18.76c4.693-9.227 8.601-17.508 8.601-18.134 0-1.249 6.569-15.475 22.042-47.816 4.219-8.748 7.656-16.408 7.656-17.186s2.815-6.87 6.245-13.753c8.442-16.723 8.122-19.384-2.189-22.042-2.336-0.458-11.878-4.845-20.934-9.374-9.067-4.693-17.348-8.442-18.286-8.442-0.786 0-8.601-3.441-17.186-7.656-41.887-20.471-51.882-25.167-53.293-25.167-0.786 0-8.748-3.593-17.811-7.975-19.060-9.227-28.289-13.602-41.407-19.384-5.158-2.336-17.186-7.975-26.568-12.653-9.529-4.693-17.973-8.442-18.597-8.442s-9.374-3.909-19.384-8.748c-10.154-4.845-25.316-12.357-33.909-16.408-8.601-4.219-16.408-7.656-17.186-7.656-0.937 0-5.782-2.189-10.779-4.693-14.064-7.194-14.688-6.87-22.507 9.853-3.747 7.975-10.626 22.186-15.313 31.724s-8.442 18.435-8.442 19.846c0 1.411-0.786 2.66-1.563 2.66-4.219 0-52.971-23.755-53.131-25.791 0-1.563 5.158-12.504 21.258-45.312 4.693-9.529 8.442-17.973 8.442-18.912s3.123-7.975 7.031-15.631c3.909-7.496 7.031-14.53 7.031-15.631 0-0.937 2.815-7.194 6.245-13.753 4.067-7.819 6.245-13.904 6.245-17.811-0.163-5.621-0.311-5.945-12.977-12.029-7.031-3.284-14.53-6.723-16.723-7.496s-10.94-4.693-19.538-8.905c-8.601-4.067-20.471-9.691-26.568-12.504-15.005-6.723-23.593-10.779-44.537-20.934-9.853-4.845-18.76-8.748-19.538-8.748-0.937 0-8.905-3.593-17.973-7.975-22.969-11.252-22.507-11.105-27.345-10.479-4.693 0.458-8.601 5.782-10.626 13.904-0.625 2.336-3.593 8.601-6.569 13.904s-5.945 11.403-6.407 13.439c-0.458 2.035-5.158 12.029-10.154 22.042-4.996 10.154-9.227 19.060-9.227 19.846s-3.123 7.819-6.87 15.631c-3.747 7.819-8.442 17.508-10.154 21.56-1.874 4.219-3.747 7.496-4.219 7.496-1.411 0-10.626-4.219-29.698-13.439-9.529-4.693-18.286-8.442-19.538-8.442s-3.441-0.937-4.845-2.189c-2.336-1.71-2.336-2.336-0.311-6.245 1.084-2.498 2.189-5.319 2.189-6.245 0-1.084 3.909-9.529 8.601-18.912 4.693-9.227 8.601-17.66 8.601-18.597s2.035-5.621 4.693-10.316c6.569-12.357 6.245-14.064-4.372-19.222-4.845-2.336-9.529-4.219-10.316-4.219-1.563 0-8.748-3.441-49.384-23.291-10.779-5.158-20.164-9.529-20.934-9.529-1.411 0-9.374-3.747-47.973-22.507-10-4.845-18.76-8.748-19.538-8.748s-8.442-3.593-17.034-7.819c-8.601-4.372-16.257-7.819-17.186-7.819-0.786 0-8.601-3.441-17.186-7.656s-23.755-11.566-33.602-16.408c-9.853-4.845-18.76-8.748-19.846-8.748-0.937 0-7.349-2.815-14.064-6.097-25.167-12.504-39.069-18.912-41.261-18.912-1.249 0.163-5.158 6.245-8.748 13.904z"></path>
</svg>
